# xmcd
#
# Track frame offsets:
#	150
#	14097
#	26857
#	41710
#	57945
#	72740
#	87010
#	103329
#	118410
#	130850
#
# Disc length: 1980 seconds
#
# Revision: 1
# Processed by: cddbd v1.5.2PL0 Copyright (c) Steve Scherf et al.
# Submitted via: audiograbber 1.83.01
#
DISCID=9907ba0a
DTITLE=Stanley Pierce - My Sins Are Gone
DYEAR=1900
DGENRE=Gospel
TTITLE0=I Go To The Rock Of Ages
TTITLE1=If God Be For Us
TTITLE2=Face To Face
TTITLE3=I'm Glad I Know Jesus Is
TTITLE4=My Sins Are Gone
TTITLE5=I'm Going To A City
TTITLE6=When He Was On The Cross
TTITLE7=He Didn't Throw The Clay Away
TTITLE8=Take Away Jesus
TTITLE9=Sweet Beulah Land
EXTD=
EXTT0=
EXTT1=
EXTT2=
EXTT3=
EXTT4=
EXTT5=
EXTT6=
EXTT7=
EXTT8=
EXTT9=
PLAYORDER=
